<?xml version="1.0" encoding="UTF-8"?>
<svg width="41px" height="41px" viewBox="0 0 41 41" version="1.1" xmlns="http://www.w3.org/2000/svg" xmlns:xlink="http://www.w3.org/1999/xlink">
    <!-- Generator: Sketch 57.1 (83088) - https://sketch.com -->
    <title>search 2</title>
    <desc>Created with Sketch.</desc>
    <g id="BMW-V3" stroke="none" stroke-width="1" fill="none" fill-rule="evenodd">
        <g id="homepage-BMW-2" transform="translate(-958.000000, -1968.000000)" fill="#4A4A4A" fill-rule="nonzero">
            <g id="Group-6" transform="translate(87.000000, 1867.000000)">
                <g id="search-2" transform="translate(871.000000, 101.000000)">
                    <g id="search">
                        <path d="M16.0112457,28.8199921 L21.4549942,28.8199921 L21.4549942,32.0221787 L16.0112457,32.0221787 L16.0112457,28.8199921 Z M10.0069504,28.4199143 C8.90149687,28.4199143 8.00562284,29.3157883 8.00562284,30.4212417 C8.00562284,31.5263824 8.90149687,32.4225693 10.0069504,32.4225693 C11.1124038,32.4225693 12.0082779,31.5263824 12.0082779,30.4212417 C12.0082779,29.3157883 11.1124038,28.4199143 10.0069504,28.4199143 Z M32.1823349,18.6528855 L16.0112457,18.6528855 L16.0112457,21.855072 L32.1823349,21.855072 L32.1823349,18.6528855 Z M10.0069504,18.2528076 C8.90149687,18.2528076 8.00562284,19.1486816 8.00562284,20.2541352 C8.00562284,21.3595886 8.90149687,22.2554626 10.0069504,22.2554626 C11.1124038,22.2554626 12.0082779,21.3595886 12.0082779,20.2541352 C12.0082779,19.1486816 11.1124038,18.2528076 10.0069504,18.2528076 L10.0069504,18.2528076 Z M32.1823349,9.04632568 L16.0112457,9.04632568 L16.0112457,12.2485122 L32.1823349,12.2485122 L32.1823349,9.04632568 Z M10.0069504,8.64593506 C8.90149687,8.64593506 8.00562284,9.54212187 8.00562284,10.6472626 C8.00562284,11.7527161 8.90149687,12.6489029 10.0069504,12.6489029 C11.1124038,12.6489029 12.0082779,11.7527161 12.0082779,10.6472626 C12.0082779,9.54212187 11.1124038,8.64593506 10.0069504,8.64593506 Z M3.20218656,36.1853027 L3.20218656,4.80343628 C3.20218656,3.92038725 3.92038725,3.20218656 4.80343628,3.20218656 L36.1853027,3.20218656 C37.068039,3.20218656 37.7862397,3.92038725 37.7862397,4.80343628 L37.7862397,22.8960876 L40.9884262,22.8960876 L40.9884262,4.80343628 C40.9884262,2.15491484 38.8338242,0 36.1853027,0 L4.80343628,0 C2.15491484,0 0,2.15491484 0,4.80343628 L0,36.1853027 C0,38.8338242 2.15491484,40.9884262 4.80343628,40.9884262 L23.2961655,40.9884262 L23.2961655,37.7862397 L4.80343628,37.7862397 C3.92038725,37.7862397 3.20218656,37.068039 3.20218656,36.1853027 Z M38.7356033,41 L35.5468674,37.8112641 C34.4680024,38.4559555 33.2077102,38.8269424 31.8623352,38.8269424 C27.8893967,38.8269424 24.6571807,35.5947266 24.6571807,31.6221008 C24.6571807,27.6491623 27.8893967,24.4169464 31.8623352,24.4169464 C35.8349609,24.4169464 39.0671768,27.6491623 39.0671768,31.6221008 C39.0671768,33.0919724 38.6242447,34.4601822 37.8656921,35.6012955 L41,38.7356033 L38.7356033,41 Z M31.8623352,35.6247559 C34.0694885,35.6247559 35.8649902,33.8292542 35.8649902,31.6221008 C35.8649902,29.4149475 34.0694885,27.619133 31.8623352,27.619133 C29.6551819,27.619133 27.8593674,29.4149475 27.8593674,31.6221008 C27.8593674,33.8292542 29.6551819,35.6247559 31.8623352,35.6247559 Z" id="Shape"></path>
                    </g>
                </g>
            </g>
        </g>
    </g>
</svg>