<?xml version="1.0" encoding="UTF-8"?>
<svg width="60px" height="60px" viewBox="0 0 60 60" version="1.1" xmlns="http://www.w3.org/2000/svg" xmlns:xlink="http://www.w3.org/1999/xlink">
    <!-- Generator: Sketch 57.1 (83088) - https://sketch.com -->
    <title>customer-service</title>
    <desc>Created with Sketch.</desc>
    <g id="BMW-V3" stroke="none" stroke-width="1" fill="none" fill-rule="evenodd">
        <g id="homepage-BMW-2" transform="translate(-1211.000000, -1963.000000)" fill="#4A4A4A" fill-rule="nonzero">
            <g id="Group-6" transform="translate(87.000000, 1867.000000)">
                <g id="Group" transform="translate(1111.000000, 96.000000)">
                    <g id="customer-service" transform="translate(14.000000, 0.000000)">
                        <path d="M47,51.4615385 L44.8344247,44.9162692 C44.0776427,42.6311731 42.1468662,40.9444423 39.7932647,40.5128654 L33.5416277,39.3670192 L33.5416277,38.8789038 C34.6295603,38.2428462 35.5762395,37.3919423 36.3302152,36.3846154 L38.2188962,36.3846154 C39.7661366,36.3846154 41.0252572,35.1162692 41.0252572,33.5576923 L41.0252572,22.25 C41.0252572,15.4955385 35.5696913,10 28.8643592,10 C22.1590271,10 16.7034612,15.4955385 16.7034612,22.25 L16.7034612,28.8461538 C16.7034612,30.6629231 17.9859682,32.1828654 19.686623,32.5371731 C20.2114125,35.2453654 21.8914874,37.5370577 24.1870907,38.8789038 L24.1870907,39.3670192 L17.9345182,40.5128654 C15.5818522,40.9444423 13.6501403,42.6311731 12.8942937,44.9162692 L12.5201123,46.0479808 L9.33395697,42.8384808 C8.96913003,42.4709808 8.96913003,41.8726154 9.33395697,41.5051154 L13.0289991,37.7839423 L6.09354537,30.7976731 L1.91768007,35.0041346 C0.68101029,36.2498654 0,37.9064423 0,39.6685577 C0,41.4306731 0.68101029,43.0863077 1.91768007,44.3320385 L14.5603368,57.0673269 C15.7970065,58.3130577 17.4415341,59 19.1908326,59 C20.940131,59 22.5837231,58.3130577 23.7913938,57.0955962 L28.3479888,52.8900769 L26.9270346,51.4615385 L47,51.4615385 Z M39.1543499,33.5576923 C39.1543499,34.0778462 38.7343312,34.5 38.2188962,34.5 L37.4321796,34.5 C37.7034612,33.8771346 37.909261,33.2203462 38.0420954,32.5371731 C38.4424696,32.4533077 38.8110384,32.2931154 39.1543499,32.0914615 L39.1543499,33.5576923 Z M38.2188962,30.4688077 L38.2188962,27.2235 C38.7754911,27.5504808 39.1543499,28.1516731 39.1543499,28.8461538 C39.1543499,29.5406346 38.7754911,30.1418269 38.2188962,30.4688077 Z M19.5098223,30.4688077 C18.9532273,30.1418269 18.5743686,29.5406346 18.5743686,28.8461538 C18.5743686,28.1516731 18.9532273,27.5504808 19.5098223,27.2235 L19.5098223,30.4688077 Z M19.5098223,24.1346154 L19.5098223,25.2107308 C19.1768007,25.2983654 18.8643592,25.4302885 18.5743686,25.6008462 L18.5743686,22.25 C18.5743686,16.5349038 23.1908326,11.8846154 28.8643592,11.8846154 C34.5378859,11.8846154 39.1543499,16.5349038 39.1543499,22.25 L39.1543499,25.6008462 C38.8643592,25.4302885 38.5519177,25.2974231 38.2188962,25.2107308 L38.2188962,24.1346154 L37.2834425,24.1346154 C34.5173059,24.1346154 31.9167446,23.0490769 29.9597755,21.0787115 L28.8643592,19.9752692 L27.7689429,21.0787115 C25.8119738,23.0490769 23.2114125,24.1346154 20.445276,24.1346154 L19.5098223,24.1346154 Z M21.3807297,30.7307692 L21.3807297,25.9834231 C24.1898971,25.7704615 26.8091674,24.6029423 28.8643592,22.6344615 C30.919551,24.6029423 33.5388213,25.7714038 36.3479888,25.9834231 L36.3479888,30.7307692 C36.3479888,32.1046538 35.9756782,33.3899615 35.3358279,34.5 L28.8643592,34.5 L28.8643592,36.3846154 L33.797942,36.3846154 C32.4789523,37.5540192 30.7549111,38.2692308 28.8643592,38.2692308 C24.738073,38.2692308 21.3807297,34.8872885 21.3807297,30.7307692 Z M31.6707203,39.7194423 L31.6707203,39.7637308 L28.8643592,42.5906538 L26.0579981,39.7637308 L26.0579981,39.7194423 C26.9448082,40.00025 27.8868101,40.1538462 28.8643592,40.1538462 C29.8419083,40.1538462 30.7839102,40.00025 31.6707203,39.7194423 Z M14.6679139,45.5118077 C15.2076707,43.8797308 16.5874649,42.6745192 18.2684752,42.3654423 L24.8072965,41.1687115 L28.8643592,45.2555 L32.9204864,41.1696538 L39.4583723,42.3663846 C41.1393826,42.6754615 42.5191768,43.8797308 43.0589336,45.51275 L44.4050514,49.5769231 L25.0561272,49.5769231 L21.4125351,45.9066346 L17.3638915,49.5957692 C17.0112254,49.9529038 16.3947615,49.9529038 16.04116,49.5957692 L13.9981291,47.5377692 L14.6679139,45.5118077 Z M6.09260992,33.4625192 L10.3826006,37.7839423 L9.36669785,38.8072885 L5.0767072,34.4858654 L6.09260992,33.4625192 Z M22.4957905,55.7367885 C21.6127222,56.6244423 20.4377923,57.1153846 19.1889616,57.1153846 C17.940131,57.1153846 16.7652011,56.6244423 15.8811974,55.7349038 L3.23854069,43.0005577 C2.3554724,42.1110192 1.86903648,40.9274808 1.86903648,39.6695 C1.86903648,38.4105769 2.3554724,37.2270385 3.23854069,36.3375 L3.75304022,35.8192308 L8.04303087,40.1406538 L8.00935454,40.1745769 C6.91580917,41.2770769 6.91580917,43.0702885 8.00935454,44.1727885 L14.717493,50.9300769 C15.2478952,51.4634231 15.9522919,51.7583654 16.7025257,51.7583654 C17.4527596,51.7583654 18.1571562,51.4643654 18.6529467,50.9630577 L18.7231057,50.8999231 L23.0327409,55.2411346 L22.4957905,55.7367885 Z M24.4134705,53.96525 L20.1131899,49.6334615 L21.3489242,48.5083462 L25.6417212,52.8325962 L24.4134705,53.96525 Z" id="Shape" stroke="#4A4A4A"></path>
                        <path d="M56.3,0 L43.7,0 C42.2114,0 41,1.20952524 41,2.69582148 L41,9.88467875 C41,11.370975 42.2114,12.5805002 43.7,12.5805002 L46.1039,12.5805002 L45.1733,18 L53.8583,12.5805002 L56.3,12.5805002 C57.7886,12.5805002 59,11.370975 59,9.88467875 L59,2.69582148 C59,1.20952524 57.7886,0 56.3,0 Z M57.2,9.88467875 C57.2,10.3798113 56.7959,10.7832859 56.3,10.7832859 L53.3417,10.7832859 L47.6258,14.3498577 L48.2387,10.7832859 L43.7,10.7832859 C43.2041,10.7832859 42.8,10.3798113 42.8,9.88467875 L42.8,2.69582148 C42.8,2.20068893 43.2041,1.79721432 43.7,1.79721432 L56.3,1.79721432 C56.7959,1.79721432 57.2,2.20068893 57.2,2.69582148 L57.2,9.88467875 Z" id="Shape"></path>
                        <rect id="Rectangle" x="44" y="3" width="12" height="2"></rect>
                        <rect id="Rectangle" x="44" y="7" width="8" height="2"></rect>
                        <rect id="Rectangle" x="53" y="7" width="3" height="2"></rect>
                        <path d="M29.1601921,3 C16.8126836,3 6.17658928,11.5492669 3.41148826,23.4745389 L1.62069318,20.4863629 L0,21.4597194 L3.32171226,27 L8.85663934,23.6750749 L7.88422343,22.0528141 L5.32324471,23.5908876 C8.00140475,12.6815387 17.8021097,4.89184928 29.1601921,4.89184928 C31.6427349,4.89184928 34.0922024,5.26075989 36.4405537,5.98912187 L37,4.1824058 C34.4702066,3.39728835 31.832682,3 29.1601921,3 Z" id="Path" stroke="#4A4A4A" stroke-width="1.3"></path>
                        <path d="M58,20.3974936 L52.3207602,17 L48.9134103,22.6621671 L50.5763599,23.6567677 L52.2732474,20.8372829 C53.166295,23.4421891 53.6230001,26.16695 53.6230001,28.9593707 C53.6230001,34.7075626 51.6255212,40.3272006 48,44.7821218 L49.5058664,46 C53.4116164,41.2019465 55.5623,35.1492851 55.5623,28.9593707 C55.5623,26.0026331 55.0842626,23.1154885 54.152429,20.3510982 L57.0022302,22.0551612 L58,20.3974936 Z" id="Path" stroke="#4A4A4A" stroke-width="1.3"></path>
                    </g>
                </g>
            </g>
        </g>
    </g>
</svg>