<?xml version="1.0" encoding="UTF-8"?>
<svg width="48px" height="48px" viewBox="0 0 48 48" version="1.1" xmlns="http://www.w3.org/2000/svg" xmlns:xlink="http://www.w3.org/1999/xlink">
    <!-- Generator: Sketch 57.1 (83088) - https://sketch.com -->
    <title>brochure copy</title>
    <desc>Created with Sketch.</desc>
    <g id="BMW-V3" stroke="none" stroke-width="1" fill="none" fill-rule="evenodd">
        <g id="homepage-BMW-2" transform="translate(-699.000000, -1967.000000)" fill="#4A4A4A" fill-rule="nonzero">
            <g id="Group-6" transform="translate(87.000000, 1867.000000)">
                <g id="Group-2" transform="translate(558.000000, 101.000000)">
                    <g id="brochure-copy" transform="translate(55.000000, 0.000000)">
                        <path d="M44.6771687,0.0750619574 L22.9999531,8.20140916 L1.32273739,0.0750619574 C0.389029365,-0.193529532 0,0.670336528 0,0.991294912 L0,36.764453 C0,37.172408 0.253188272,37.5374747 0.63461354,37.6808736 L22.6558911,45.9361673 C23.0104674,46.0771262 23.3298394,45.9414227 23.344015,45.9361673 L45.3652926,37.6808736 C45.7467179,37.5374747 46,37.1725018 46,36.764453 L46,0.991294912 C46,0.503663402 45.48555,-0.23904556 44.6771687,0.0750619574 Z M44.0426491,24.5441033 L42.332666,25.1088774 L42.332666,8.32322319 C42.332666,8.00226481 42.1749514,7.70167132 41.9111549,7.51923182 C41.649236,7.33622923 41.3128721,7.2946548 41.0098347,7.40699023 L26.323319,12.9129281 C25.9418938,13.0562332 25.6886116,13.421206 25.6886116,13.829161 L25.6886116,30.6064629 L23.9788163,31.171237 L23.9788163,9.92454275 L44.0426491,2.40304256 L44.0426491,24.5441033 L44.0426491,24.5441033 Z M40.3752212,25.7553927 L27.6459625,29.9598537 L27.6459625,14.5070214 L40.3752212,9.73497084 L40.3752212,25.7553927 L40.3752212,25.7553927 Z M22.0212776,43.6080928 L1.95735093,36.0865926 L1.95735093,2.40304256 L22.0212776,9.92454275 L22.0212776,43.6080928 L22.0212776,43.6080928 Z M23.9787224,43.6080928 L23.9787224,33.2322215 L44.0425552,26.6052755 L44.0425552,36.0865926 L23.9787224,43.6080928 Z" id="Shape" stroke="#4A4A4A" stroke-width="1.2"></path>
                        <path d="M17.3721509,15.8432332 L6.00009399,11.90395 L6.62784905,10 L18,13.9393797 L17.3721509,15.8432332 Z M17.999906,20.991571 L6.62775506,17.0522877 L6,18.9563341 L17.372057,22.8956173 L17.999906,20.991571 Z M17.999906,28.0438587 L6.62775506,24.1045754 L6,26.008429 L17.372057,29.9478087 L17.999906,28.0438587 Z M17.999906,35.0962428 L6.62775506,31.1568632 L6,33.0607167 L17.372057,37 L17.999906,35.0962428 Z" id="Shape"></path>
                    </g>
                </g>
            </g>
        </g>
    </g>
</svg>