<?xml version="1.0" encoding="UTF-8"?>
<svg width="64px" height="40px" viewBox="0 0 64 40" version="1.1" xmlns="http://www.w3.org/2000/svg" xmlns:xlink="http://www.w3.org/1999/xlink">
    <!-- Generator: Sketch 57.1 (83088) - https://sketch.com -->
    <title>repair-service copy</title>
    <desc>Created with Sketch.</desc>
    <g id="BMW-V3" stroke="none" stroke-width="1" fill="none" fill-rule="evenodd">
        <g id="homepage-BMW-2" transform="translate(-168.000000, -1970.000000)" fill="#4A4A4A" fill-rule="nonzero">
            <g id="Group-6" transform="translate(87.000000, 1867.000000)">
                <g id="Group-5" transform="translate(53.000000, 103.000000)">
                    <g id="repair-service-copy" transform="translate(28.000000, 0.000000)">
                        <path d="M61.9660201,10.8956332 C61.7510008,10.8956332 61.5303424,10.9265769 61.309684,10.9879691 L58.815754,11.6816021 L56.2259603,5.31215962 C55.4923938,3.50777305 53.3238123,2.03980592 51.3920708,2.03980592 L27.1561809,2.03980592 C25.2244394,2.03980592 23.055858,3.50777305 22.3220463,5.31215962 L20.3876079,10.0712942 C20.4160483,9.75542133 20.4319847,9.43682543 20.4319847,9.11550649 C20.4319847,5.42405189 18.4583182,1.99128627 15.2808376,0.156203585 C15.1119113,0.0586691752 14.9162609,0.00717892861 14.7147263,0.00717892861 C14.0740814,0.00717892861 13.5908396,0.511931874 13.5908396,1.17783939 C13.5908396,1.17783939 13.5709803,6.34146945 13.5714707,8.06243192 C13.5712255,8.24289534 13.3576773,8.4577681 13.2686784,8.522626 L13.2046874,8.57114566 C12.1823036,9.42989405 10.8931684,10.3973166 10.3233794,10.6966036 C10.2875837,10.6963561 10.2527688,10.6953659 10.2159924,10.6953659 C10.1767642,10.6953659 10.1397426,10.6963561 10.1014952,10.6966036 C9.52361542,10.3968215 8.21364021,9.4125656 7.1760555,8.53747896 L7.11108386,8.48796911 C7.10838693,8.48623626 6.85977849,8.28497871 6.85977849,7.89731657 C6.85977849,6.1060501 6.84188065,1.18180018 6.84188065,1.18180018 C6.84114512,0.40598079 6.29072506,0 5.74741511,0 C5.53729931,0 5.32031857,0.0584216259 5.13496554,0.165362907 C1.96753717,2.00292108 0,5.43222101 0,9.11525894 C0,13.4349936 2.6447132,17.140806 6.38438229,18.6746212 L6.38389193,36.2379939 C6.38389193,38.3124567 8.05525653,40 10.1098312,40 L10.3219084,40 C12.376483,40 14.0478476,38.3124567 14.0478476,36.2379939 L14.048338,18.6813051 C15.3024131,18.1691257 16.4542498,17.4041984 17.4398572,16.4090504 C17.6791489,16.1674423 17.9047108,15.9161798 18.116788,15.655758 L17.0738094,18.2208635 C16.3922202,19.8970195 15.837387,22.7351718 15.837387,24.5477275 L15.837387,37.201208 C15.837387,38.663234 17.0157027,39.8529557 18.463712,39.8529557 L21.8937239,39.8529557 C23.3417331,39.8529557 24.5200489,38.6634815 24.5200489,37.201208 L24.5200489,34.0412417 L54.0286932,34.0412417 L54.0286932,37.201208 C54.0286932,38.663234 55.2070089,39.8529557 56.6550182,39.8529557 L60.0845397,39.8529557 C61.532549,39.8529557 62.7108647,38.6634815 62.7108647,37.201208 L62.7108647,24.5477275 C62.7108647,22.7354193 62.1562766,19.8972671 61.4746874,18.2208635 L61.0566624,17.1927914 L61.3736749,17.1927914 C62.8216842,17.1927914 64,16.0033172 64,14.5410437 L64,13.0567383 C64,11.8046341 63.1448262,10.8956332 61.9660201,10.8956332 Z M21.6019022,15.622398 L25.5097524,6.05984496 C25.9473006,4.98857562 27.2486944,4.11214953 28.4013855,4.11214953 L50.026389,4.11214953 C51.1790801,4.11214953 52.4804739,4.98857562 52.9180221,6.05984496 L56.8258723,15.622398 C57.2634205,16.6936674 56.6783925,17.5700935 55.5259459,17.5700935 L22.9018286,17.5700935 C21.7491375,17.5700935 21.164354,16.6936674 21.6019022,15.622398 Z M30.3352601,27.7464905 C30.3352601,28.3175146 29.8587959,28.7850467 29.2765607,28.7850467 L21.7754625,28.7850467 C21.1932272,28.7850467 20.716763,28.317757 20.716763,27.7464905 L20.716763,24.2161263 C20.716763,23.6451022 21.1932272,23.1775701 21.7754625,23.1775701 L29.2765607,23.1775701 C29.8587959,23.1775701 30.3352601,23.6448598 30.3352601,24.2161263 L30.3352601,27.7464905 Z M57.7109827,27.7464905 C57.7109827,28.3175146 57.2345062,28.7850467 56.652256,28.7850467 L49.1512122,28.7850467 C48.568962,28.7850467 48.0924855,28.317757 48.0924855,27.7464905 L48.0924855,24.2161263 C48.0924855,23.6451022 48.568962,23.1775701 49.1512122,23.1775701 L56.652256,23.1775701 C57.2345062,23.1775701 57.7109827,23.6448598 57.7109827,24.2161263 L57.7109827,27.7464905 Z" id="Shape"></path>
                    </g>
                </g>
            </g>
        </g>
    </g>
</svg>