<?xml version="1.0" encoding="UTF-8"?>
<svg width="27px" height="27px" viewBox="0 0 27 27" version="1.1" xmlns="http://www.w3.org/2000/svg" xmlns:xlink="http://www.w3.org/1999/xlink">
    <!-- Generator: Sketch 57.1 (83088) - https://sketch.com -->
    <title>Shape</title>
    <desc>Created with Sketch.</desc>
    <g id="BMW-V3" stroke="none" stroke-width="1" fill="none" fill-rule="evenodd">
        <g id="homepage-BMW-2" transform="translate(-1032.000000, -41.000000)" fill="#FFFFFF">
            <path d="M1051.29983,51.0198388 L1050.0741,51.0198388 L1049.64803,51.4427992 C1051.15317,53.1979304 1052.06861,55.473272 1052.06861,57.9662684 C1052.06861,63.5079755 1047.57633,68 1042.03431,68 C1036.49228,68 1032,63.5079755 1032,57.9662684 C1032,52.4245612 1036.49228,47.9325367 1042.03431,47.9325367 C1044.52744,47.9325367 1046.80137,48.8463781 1048.5566,50.3498942 L1048.98268,49.9269339 L1048.98268,48.7043622 L1056.69828,41 L1059,43.3015837 L1051.29983,51.0198388 L1051.29983,51.0198388 Z M1042,51 C1038.13289,51 1035,54.1328889 1035,58 C1035,61.8655556 1038.13289,65 1042,65 C1045.86556,65 1049,61.8655556 1049,58 C1049,54.1328889 1045.86556,51 1042,51 L1042,51 Z" id="Shape" transform="translate(1045.500000, 54.500000) scale(1, -1) translate(-1045.500000, -54.500000) "></path>
        </g>
    </g>
</svg>