<?xml version="1.0" encoding="UTF-8"?>
<svg width="40px" height="40px" viewBox="0 0 40 40" version="1.1" xmlns="http://www.w3.org/2000/svg" xmlns:xlink="http://www.w3.org/1999/xlink">
    <!-- Generator: Sketch 57.1 (83088) - https://sketch.com -->
    <title>whatsapp</title>
    <desc>Created with Sketch.</desc>
    <g id="BMW-V3" stroke="none" stroke-width="1" fill="none" fill-rule="evenodd">
        <g id="contact-us" transform="translate(-544.000000, -419.000000)" fill-rule="nonzero">
            <g id="whatsapp" transform="translate(544.000000, 419.000000)">
                <path d="M0,40 L3.44,29.6806897 C1.69448276,26.7448276 0.689655172,23.3186207 0.689655172,19.6551724 C0.689655172,8.8 9.48965517,0 20.3448276,0 C31.2,0 40,8.8 40,19.6551724 C40,30.5103448 31.2,39.3103448 20.3448276,39.3103448 C17.042069,39.3103448 13.9317241,38.4917241 11.2,37.0531034 L0,40 Z" id="Shape" fill="#2CB742"></path>
                <path d="M31.7974446,26.878842 C30.9566644,25.2899505 27.8561276,23.4729793 27.8561276,23.4729793 C27.1546255,23.0730412 26.3080953,23.0283197 25.9081497,23.7413084 C25.9081497,23.7413084 24.9006189,24.9494281 24.6444237,25.1232032 C23.4739759,25.9160517 22.3897783,25.8853855 21.2953584,24.7909862 L18.7519343,22.2476098 L16.2085102,19.7042335 C15.1140903,18.6098341 15.0834236,17.5256569 15.876287,16.355231 C16.0500653,16.0990406 17.2582077,15.0915288 17.2582077,15.0915288 C17.9712098,14.6909518 17.9264874,13.8450763 17.5265418,13.1435874 C17.5265418,13.1435874 15.7095365,10.0431087 14.1206152,9.20234429 C13.4446688,8.84457218 12.6147497,8.96979242 12.0742481,9.51028385 L10.9510782,10.6334327 C7.38798441,14.1964596 9.14237842,18.2188403 12.7054722,21.7818672 L15.9618984,25.0382323 L19.2183245,28.2945974 C22.7814183,31.8576242 26.8038745,33.6119853 30.3669682,30.0489585 L31.4901382,28.9258096 C32.0306398,28.3840404 32.1552235,27.5541369 31.7974446,26.878842 Z" id="Shape" fill="#FFFFFF"></path>
            </g>
        </g>
    </g>
</svg>